<svg width="35" height="35" viewBox="0 0 35 35" fill="none" xmlns="http://www.w3.org/2000/svg">
<g clip-path="url(#clip0_3_269)">
<path fill-rule="evenodd" clip-rule="evenodd" d="M35 37H28V24.7517C28 21.3917 26.5178 19.5171 23.8595 19.5171C20.9668 19.5171 19.25 21.4705 19.25 24.7517V37H12.25V14.25H19.25V16.8083C19.25 16.8083 21.4462 12.9546 26.3952 12.9546C31.346 12.9546 35 15.9757 35 22.2267V37ZM4.2735 10.6116C1.91275 10.6116 0 8.68318 0 6.30493C0 3.92843 1.91275 2 4.2735 2C6.6325 2 8.54524 3.92843 8.54524 6.30493C8.54699 8.68318 6.6325 10.6116 4.2735 10.6116ZM0 37H8.75V14.25H0V37Z" fill="#0074CC"/>
</g>
<defs>
<clipPath id="clip0_3_269">
<rect width="35" height="35" fill="white"/>
</clipPath>
</defs>
</svg>
