<svg width="40" height="40" viewBox="0 0 40 40" fill="none" xmlns="http://www.w3.org/2000/svg">
<path d="M17.0627 5.19362L18.1443 7.13183C19.1205 8.88097 18.7287 11.1755 17.1912 12.713C17.1912 12.713 15.3265 14.578 18.7075 17.9592C22.0875 21.3392 23.9537 19.4755 23.9537 19.4755C25.4912 17.938 27.7857 17.5462 29.5348 18.5223L31.473 19.604C34.1143 21.078 34.4262 24.782 32.1047 27.1037C30.7097 28.4987 29.0007 29.5842 27.1115 29.6557C23.9313 29.7763 18.5305 28.9715 13.1128 23.5538C7.69522 18.1362 6.89035 12.7354 7.01092 9.55515C7.08254 7.666 8.168 5.95705 9.56302 4.56205C11.8846 2.24047 15.5886 2.5524 17.0627 5.19362Z" fill="#0074CC"/>
</svg>
