<svg width="187" height="49" viewBox="0 0 187 49" fill="none" xmlns="http://www.w3.org/2000/svg">
<path d="M23.8802 38.6613L38 14.9764L52.1198 38.6613H23.8802Z" stroke="white"/>
<path d="M38 18.8387L49.129 37.2258H26.871L38 18.8387Z" fill="white"/>
<path d="M10.7369 39.24C8.71021 39.24 6.79021 38.92 4.97688 38.28C3.19021 37.6133 1.75021 36.7333 0.656875 35.64L2.05688 33.36C2.96354 34.2933 4.17688 35.0667 5.69688 35.68C7.24354 36.2933 8.92354 36.6 10.7369 36.6C13.0569 36.6 14.8302 36.0933 16.0569 35.08C17.3102 34.0667 17.9369 32.7067 17.9369 31C17.9369 29.2933 17.3235 27.9333 16.0969 26.92C14.8969 25.9067 12.9902 25.4 10.3769 25.4H8.37688V23.28L17.0169 12.44L17.4169 13.56H1.81688V11H19.8169V13.04L11.1769 23.88L9.77688 22.96H10.8569C14.2169 22.96 16.7235 23.7067 18.3769 25.2C20.0569 26.6933 20.8969 28.6133 20.8969 30.96C20.8969 32.5333 20.5235 33.9467 19.7769 35.2C19.0302 36.4533 17.8969 37.44 16.3769 38.16C14.8835 38.88 13.0035 39.24 10.7369 39.24ZM71.4013 39V34.36L71.2813 33.6V25.84C71.2813 24.0533 70.7746 22.68 69.7613 21.72C68.7746 20.76 67.2946 20.28 65.3213 20.28C63.9613 20.28 62.6679 20.5067 61.4413 20.96C60.2146 21.4133 59.1746 22.0133 58.3213 22.76L57.0413 20.64C58.1079 19.7333 59.3879 19.04 60.8813 18.56C62.3746 18.0533 63.9479 17.8 65.6013 17.8C68.3213 17.8 70.4146 18.48 71.8813 19.84C73.3746 21.1733 74.1213 23.2133 74.1213 25.96V39H71.4013ZM64.1613 39.2C62.5879 39.2 61.2146 38.9467 60.0413 38.44C58.8946 37.9067 58.0146 37.1867 57.4013 36.28C56.7879 35.3467 56.4813 34.28 56.4813 33.08C56.4813 31.9867 56.7346 31 57.2413 30.12C57.7746 29.2133 58.6279 28.4933 59.8013 27.96C61.0013 27.4 62.6013 27.12 64.6013 27.12H71.8413V29.24H64.6813C62.6546 29.24 61.2413 29.6 60.4413 30.32C59.6679 31.04 59.2812 31.9333 59.2812 33C59.2812 34.2 59.7479 35.16 60.6813 35.88C61.6146 36.6 62.9213 36.96 64.6013 36.96C66.2013 36.96 67.5746 36.6 68.7213 35.88C69.8946 35.1333 70.7479 34.0667 71.2813 32.68L71.9213 34.64C71.3879 36.0267 70.4546 37.1333 69.1213 37.96C67.8146 38.7867 66.1613 39.2 64.1613 39.2ZM92.555 17.8C94.2617 17.8 95.755 18.1333 97.035 18.8C98.3417 19.44 99.355 20.4267 100.075 21.76C100.822 23.0933 101.195 24.7733 101.195 26.8V39H98.355V27.08C98.355 24.8667 97.795 23.2 96.675 22.08C95.5817 20.9333 94.035 20.36 92.035 20.36C90.5417 20.36 89.235 20.6667 88.115 21.28C87.0217 21.8667 86.1683 22.7333 85.555 23.88C84.9683 25 84.675 26.36 84.675 27.96V39H81.835V18H84.555V23.76L84.115 22.68C84.7817 21.16 85.8483 19.9733 87.315 19.12C88.7817 18.24 90.5283 17.8 92.555 17.8ZM117.826 46.96C115.906 46.96 114.066 46.68 112.306 46.12C110.546 45.56 109.12 44.76 108.026 43.72L109.466 41.56C110.453 42.44 111.666 43.1333 113.106 43.64C114.573 44.1733 116.12 44.44 117.746 44.44C120.413 44.44 122.373 43.8133 123.626 42.56C124.88 41.3333 125.506 39.4133 125.506 36.8V31.56L125.906 27.96L125.626 24.36V18H128.346V36.44C128.346 40.0667 127.453 42.72 125.666 44.4C123.906 46.1067 121.293 46.96 117.826 46.96ZM117.306 38.2C115.306 38.2 113.506 37.7733 111.906 36.92C110.306 36.04 109.04 34.8267 108.106 33.28C107.2 31.7333 106.746 29.96 106.746 27.96C106.746 25.96 107.2 24.2 108.106 22.68C109.04 21.1333 110.306 19.9333 111.906 19.08C113.506 18.2267 115.306 17.8 117.306 17.8C119.173 17.8 120.853 18.1867 122.346 18.96C123.84 19.7333 125.026 20.88 125.906 22.4C126.786 23.92 127.226 25.7733 127.226 27.96C127.226 30.1467 126.786 32 125.906 33.52C125.026 35.04 123.84 36.2 122.346 37C120.853 37.8 119.173 38.2 117.306 38.2ZM117.586 35.68C119.133 35.68 120.506 35.36 121.706 34.72C122.906 34.0533 123.853 33.1467 124.546 32C125.24 30.8267 125.586 29.48 125.586 27.96C125.586 26.44 125.24 25.1067 124.546 23.96C123.853 22.8133 122.906 21.92 121.706 21.28C120.506 20.6133 119.133 20.28 117.586 20.28C116.066 20.28 114.693 20.6133 113.466 21.28C112.266 21.92 111.32 22.8133 110.626 23.96C109.96 25.1067 109.626 26.44 109.626 27.96C109.626 29.48 109.96 30.8267 110.626 32C111.32 33.1467 112.266 34.0533 113.466 34.72C114.693 35.36 116.066 35.68 117.586 35.68ZM136.249 39V9.32H139.089V39H136.249ZM155.911 39.2C153.725 39.2 151.805 38.7467 150.151 37.84C148.498 36.9067 147.205 35.64 146.271 34.04C145.338 32.4133 144.871 30.56 144.871 28.48C144.871 26.4 145.311 24.56 146.191 22.96C147.098 21.36 148.325 20.1067 149.871 19.2C151.445 18.2667 153.205 17.8 155.151 17.8C157.125 17.8 158.871 18.2533 160.391 19.16C161.938 20.04 163.151 21.2933 164.031 22.92C164.911 24.52 165.351 26.3733 165.351 28.48C165.351 28.6133 165.338 28.76 165.311 28.92C165.311 29.0533 165.311 29.2 165.311 29.36H147.031V27.24H163.791L162.671 28.08C162.671 26.56 162.338 25.2133 161.671 24.04C161.031 22.84 160.151 21.9067 159.031 21.24C157.911 20.5733 156.618 20.24 155.151 20.24C153.711 20.24 152.418 20.5733 151.271 21.24C150.125 21.9067 149.231 22.84 148.591 24.04C147.951 25.24 147.631 26.6133 147.631 28.16V28.6C147.631 30.2 147.978 31.6133 148.671 32.84C149.391 34.04 150.378 34.9867 151.631 35.68C152.911 36.3467 154.365 36.68 155.991 36.68C157.271 36.68 158.458 36.4533 159.551 36C160.671 35.5467 161.631 34.8533 162.431 33.92L164.031 35.76C163.098 36.88 161.925 37.7333 160.511 38.32C159.125 38.9067 157.591 39.2 155.911 39.2ZM176.772 39.2C175.039 39.2 173.399 38.96 171.852 38.48C170.305 37.9733 169.092 37.3467 168.212 36.6L169.492 34.36C170.345 35 171.439 35.56 172.772 36.04C174.105 36.4933 175.505 36.72 176.972 36.72C178.972 36.72 180.412 36.4133 181.292 35.8C182.172 35.16 182.612 34.32 182.612 33.28C182.612 32.5067 182.359 31.9067 181.852 31.48C181.372 31.0267 180.732 30.6933 179.932 30.48C179.132 30.24 178.239 30.04 177.252 29.88C176.265 29.72 175.279 29.5333 174.292 29.32C173.332 29.1067 172.452 28.8 171.652 28.4C170.852 27.9733 170.199 27.4 169.692 26.68C169.212 25.96 168.972 25 168.972 23.8C168.972 22.6533 169.292 21.6267 169.932 20.72C170.572 19.8133 171.505 19.1067 172.732 18.6C173.985 18.0667 175.505 17.8 177.292 17.8C178.652 17.8 180.012 17.9867 181.372 18.36C182.732 18.7067 183.852 19.1733 184.732 19.76L183.492 22.04C182.559 21.4 181.559 20.9467 180.492 20.68C179.425 20.3867 178.359 20.24 177.292 20.24C175.399 20.24 173.999 20.5733 173.092 21.24C172.212 21.88 171.772 22.7067 171.772 23.72C171.772 24.52 172.012 25.1467 172.492 25.6C172.999 26.0533 173.652 26.4133 174.452 26.68C175.279 26.92 176.172 27.12 177.132 27.28C178.119 27.44 179.092 27.64 180.052 27.88C181.039 28.0933 181.932 28.4 182.732 28.8C183.559 29.1733 184.212 29.72 184.692 30.44C185.199 31.1333 185.452 32.0533 185.452 33.2C185.452 34.4267 185.105 35.4933 184.412 36.4C183.745 37.28 182.759 37.9733 181.452 38.48C180.172 38.96 178.612 39.2 176.772 39.2Z" fill="white"/>
</svg>
